<svg xmlns="http://www.w3.org/2000/svg" width="21.711" height="24.812" viewBox="0 0 21.711 24.812">
  <path id="Icon_awesome-trash-alt" data-name="Icon awesome-trash-alt" d="M1.551,22.486a2.326,2.326,0,0,0,2.326,2.326H17.834a2.326,2.326,0,0,0,2.326-2.326V6.2H1.551ZM14.732,10.08a.775.775,0,1,1,1.551,0V20.936a.775.775,0,0,1-1.551,0Zm-4.652,0a.775.775,0,1,1,1.551,0V20.936a.775.775,0,1,1-1.551,0Zm-4.652,0a.775.775,0,1,1,1.551,0V20.936a.775.775,0,1,1-1.551,0ZM20.936,1.551H15.12L14.665.645A1.163,1.163,0,0,0,13.623,0H8.083A1.15,1.15,0,0,0,7.046.645l-.456.906H.775A.775.775,0,0,0,0,2.326V3.877a.775.775,0,0,0,.775.775h20.16a.775.775,0,0,0,.775-.775V2.326A.775.775,0,0,0,20.936,1.551Z" fill="#585656"/>
</svg>
