<svg xmlns="http://www.w3.org/2000/svg" width="25.061" height="26.197" viewBox="0 0 25.061 26.197">
  <g id="Group_277" data-name="Group 277" transform="translate(-6.428 -6.545)">
    <path id="Path_399" data-name="Path 399" d="M6.265,0H18.8a6.328,6.328,0,0,1,6.265,6.389V19.807A6.328,6.328,0,0,1,18.8,26.2H6.265A6.328,6.328,0,0,1,0,19.807V6.389A6.328,6.328,0,0,1,6.265,0Z" transform="translate(6.428 6.545)" fill="#f08b7b" opacity="0.35"/>
    <g id="Group_198" data-name="Group 198" transform="translate(12.477 11.811)">
      <path id="Path_355" data-name="Path 355" d="M369.966,249.127a.872.872,0,0,1-.251-.66c.01-1.78.005-3.56,0-5.339a1.42,1.42,0,0,0-1.606-1.609h-1.587a1.13,1.13,0,0,0-.747-1.288h-4.9a1.111,1.111,0,0,0-.723,1.262c-.12.01-.216.024-.312.024-.51,0-1.02-.006-1.53,0a1.351,1.351,0,0,0-1.338,1.239,4.382,4.382,0,0,0-.014.442q0,5.3,0,10.606c0,1.026.211,1.35,1.126,1.735h9.529a9.085,9.085,0,0,0,1.59-.62A3.776,3.776,0,0,0,369.966,249.127Zm-8.516-7.6h3.775v1.24H361.45Zm2.81,12.71a2.221,2.221,0,0,1-.251.03c-1.815,0-3.629,0-5.443.007-.268,0-.346-.074-.346-.346q.013-5.409,0-10.817c0-.241.057-.351.321-.344.52.015,1.04,0,1.584,0,.02.2.025.346.05.489a.908.908,0,0,0,.92.789q2.228.008,4.456,0a.954.954,0,0,0,.971-.9c.011-.111,0-.224,0-.377.588,0,1.152,0,1.716,0,.232,0,.194.172.194.316q0,1.683,0,3.368v1.622a3.787,3.787,0,0,0-4.64,1.866A3.737,3.737,0,0,0,364.261,254.235Zm2.93.031a2.526,2.526,0,0,1-2.574-2.549,2.556,2.556,0,0,1,2.539-2.561,2.588,2.588,0,0,1,2.569,2.546A2.551,2.551,0,0,1,367.19,254.266Z" transform="translate(-356.963 -240.232)" fill="#f08b7b"/>
      <path id="Path_356" data-name="Path 356" d="M383.243,290.408h0Zm-.421,0c.091,0,.181,0,.272,0C383,290.413,382.913,290.414,382.822,290.411Z" transform="translate(-379.537 -284.033)" fill="#f08b7b"/>
      <path id="Path_357" data-name="Path 357" d="M381.509,301.213a.611.611,0,0,1-.666.648q-1.548.009-3.1,0a.626.626,0,1,1-.006-1.247c.522-.007,1.043,0,1.565,0s1.02,0,1.531,0A.593.593,0,0,1,381.509,301.213Z" transform="translate(-374.513 -292.94)" fill="#f08b7b"/>
      <path id="Path_358" data-name="Path 358" d="M410.972,281.025c0,.4-.251.634-.711.643-.4.008-.793,0-1.189,0s-.793.005-1.19,0a.642.642,0,1,1,.016-1.271q1.173-.007,2.345,0C410.7,280.4,410.967,280.64,410.972,281.025Z" transform="translate(-400.782 -275.291)" fill="#f08b7b"/>
      <path id="Path_359" data-name="Path 359" d="M375.912,321.216a.658.658,0,0,1-.737.626c-.4,0-.794,0-1.19,0s-.794.005-1.19,0a.619.619,0,0,1-.694-.624.632.632,0,0,1,.71-.645q1.189-.008,2.379,0A.652.652,0,0,1,375.912,321.216Z" transform="translate(-370.179 -310.362)" fill="#f08b7b"/>
      <path id="Path_360" data-name="Path 360" d="M379.6,280.985a.6.6,0,0,1-.6.646c-.084.007-.169.009-.254.009l-.167,0h-.037l-.13,0h-.19l-.149,0c-.091,0-.182,0-.272,0-.042,0-.083,0-.124-.007a.622.622,0,0,1-.606-.646.614.614,0,0,1,.6-.613c.44-.02.883-.02,1.324,0A.605.605,0,0,1,379.6,280.985Z" transform="translate(-374.518 -275.259)" fill="#f08b7b"/>
      <path id="Path_361" data-name="Path 361" d="M425.04,328.315c.449,0,.9,0,1.349,0a.356.356,0,0,0,.394-.348.351.351,0,0,0-.382-.358q-1.371,0-2.743,0a.463.463,0,0,0-.189.04.352.352,0,0,0,.162.664C424.1,328.317,424.57,328.315,425.04,328.315Z" transform="translate(-414.854 -316.507)" fill="#f08b7b"/>
    </g>
  </g>
</svg>
